<svg width="10" height="19" viewBox="0 0 10 19" fill="none" xmlns="http://www.w3.org/2000/svg">
<path d="M2.94123 10.2997C2.43711 9.7997 2.43371 8.98603 2.93375 8.48191C2.93647 8.47918 2.93851 8.47714 2.94123 8.47442L8.84241 2.58617C9.34653 2.08613 9.34993 1.27246 8.84989 0.768335C8.84717 0.765614 8.84513 0.763573 8.84241 0.760852C8.341 0.262171 7.53141 0.262171 7.02933 0.760852L1.12816 6.66203C-0.376052 8.16759 -0.376052 10.6073 1.12816 12.1128L7.02933 18.014C7.26881 18.2514 7.59196 18.3855 7.9294 18.3868C8.27093 18.3889 8.59953 18.2548 8.84241 18.014C9.34653 17.514 9.34993 16.7003 8.84989 16.1962C8.84717 16.1934 8.84513 16.1914 8.84241 16.1887L2.94123 10.3004V10.2997Z" fill="white"/>
</svg>
