<svg width="10" height="18" viewBox="0 0 10 18" fill="none" xmlns="http://www.w3.org/2000/svg">
<path d="M7.05877 9.9129C7.56289 9.41286 7.56629 8.59919 7.06625 8.09507C7.06353 8.09234 7.06149 8.0903 7.05877 8.08758L1.15759 2.19933C0.653469 1.69929 0.650068 0.885618 1.15011 0.381495C1.15283 0.378773 1.15487 0.376732 1.15759 0.374011C1.659 -0.12467 2.46859 -0.12467 2.97067 0.374011L8.87184 6.27518C10.3761 7.78075 10.3761 10.2204 8.87184 11.726L2.97067 17.6272C2.73119 17.8646 2.40804 17.9986 2.0706 18C1.72907 18.002 1.40047 17.868 1.15759 17.6272C0.653469 17.1271 0.650068 16.3134 1.15011 15.8093C1.15283 15.8066 1.15487 15.8046 1.15759 15.8018L7.05877 9.91358V9.9129Z" fill="#FCD100"/>
</svg>
