<svg width="19" height="19" viewBox="0 0 19 19" fill="none" xmlns="http://www.w3.org/2000/svg">
<g clip-path="url(#clip0_30_3677)">
<path d="M13.7159 5.71311L13.2971 5.29425C12.5594 4.55657 11.2981 5.07901 11.2981 6.12227C11.2981 6.43283 11.4215 6.73068 11.6411 6.95029L12.5513 7.86046C13.1945 8.50371 14.2374 8.50371 14.8807 7.86046L17.2197 5.52139C17.4394 5.30177 17.5627 5.00392 17.5627 4.69337C17.5627 3.65011 16.3014 3.12766 15.5637 3.86534L13.7159 5.71311Z" stroke="white" stroke-width="1.05908" stroke-miterlimit="10" stroke-linecap="round" stroke-linejoin="round"/>
<path d="M7.6497 5.55877C8.75653 4.45195 8.75653 2.65743 7.6497 1.5506C6.54288 0.443779 4.74836 0.44378 3.64153 1.5506C2.53471 2.65743 2.53471 4.45195 3.64153 5.55877C4.74836 6.6656 6.54288 6.6656 7.6497 5.55877Z" stroke="white" stroke-width="1.05908" stroke-miterlimit="10" stroke-linecap="round" stroke-linejoin="round"/>
<path d="M7.62765 15.9281H0.538086V11.8424C0.538086 9.02158 2.82477 6.73486 5.64559 6.73486C8.46637 6.73486 10.7531 9.02158 10.7531 11.8424V14.5362" stroke="white" stroke-width="1.05908" stroke-miterlimit="10" stroke-linecap="round" stroke-linejoin="round"/>
<path d="M10.1505 15.1389L7.19847 12.1868C6.46079 11.4491 5.19946 11.9716 5.19946 13.0148C5.19946 13.3254 5.32285 13.6232 5.54243 13.8428L8.98584 17.2862C9.62908 17.9295 10.672 17.9295 11.3152 17.2862L17.2265 11.3749C17.4462 11.1553 17.5695 10.8574 17.5695 10.5469C17.5695 9.50362 16.3082 8.98118 15.5705 9.71886L10.1505 15.1389Z" stroke="white" stroke-width="1.05908" stroke-miterlimit="10" stroke-linecap="round" stroke-linejoin="round"/>
</g>
<defs>
<clipPath id="clip0_30_3677">
<rect width="18.1075" height="18.1075" fill="white" transform="translate(0 0.190918)"/>
</clipPath>
</defs>
</svg>
