<svg width="20" height="15" viewBox="0 0 20 15" fill="none" xmlns="http://www.w3.org/2000/svg">
<path d="M0.826938 2.32174C0.944291 1.80754 1.23277 1.34842 1.64514 1.01958C2.05751 0.690747 2.56932 0.511683 3.09674 0.511719H17.0648C17.5922 0.511683 18.104 0.690747 18.5164 1.01958C18.9287 1.34842 19.2172 1.80754 19.3346 2.32174L10.0808 7.97763L0.826938 2.32174ZM0.768738 3.65103V11.9201L7.52344 7.77859L0.768738 3.65103ZM8.63856 8.46186L0.991062 13.1493C1.18001 13.5477 1.47823 13.8843 1.85101 14.1198C2.22378 14.3554 2.65579 14.4802 3.09674 14.4797H17.0648C17.5057 14.4798 17.9375 14.3547 18.3101 14.119C18.6826 13.8833 18.9806 13.5466 19.1693 13.1481L11.5218 8.46069L10.0808 9.34184L8.63856 8.46069V8.46186ZM12.6381 7.77975L19.3928 11.9201V3.65103L12.6381 7.77859V7.77975Z" fill="#FCD100"/>
</svg>
