<svg width="21" height="21" viewBox="0 0 21 21" fill="none" xmlns="http://www.w3.org/2000/svg">
<path d="M14.4229 11.2685C14.0783 11.2685 13.7964 11.5504 13.7964 11.895V15.6539C13.7964 16.343 13.2326 16.9069 12.5434 16.9069H5.02562C4.33649 16.9069 3.77265 16.343 3.77265 15.6539V8.13607C3.77265 7.44694 4.33649 6.8831 5.02562 6.8831H8.78453C9.1291 6.8831 9.41102 6.60118 9.41102 6.25661C9.41102 5.91205 9.1291 5.63013 8.78453 5.63013H5.02562C3.64109 5.63013 2.51968 6.75154 2.51968 8.13607V15.6539C2.51968 17.0384 3.64109 18.1598 5.02562 18.1598H12.5434C13.928 18.1598 15.0494 17.0384 15.0494 15.6539V11.895C15.0494 11.5504 14.7675 11.2685 14.4229 11.2685Z" fill="#243258"/>
<path d="M16.9289 3.12427H10.664C10.3194 3.12427 10.0375 3.40619 10.0375 3.75075C10.0375 4.09532 10.3194 4.37724 10.664 4.37724H15.419L7.09303 12.7032C6.8487 12.9476 6.8487 13.3423 7.09303 13.5866C7.21833 13.7119 7.37495 13.7683 7.53783 13.7683C7.70072 13.7683 7.85734 13.7056 7.98264 13.5866L16.3086 5.26058V10.0156C16.3086 10.3602 16.5906 10.6421 16.9351 10.6421C17.2797 10.6421 17.5616 10.3602 17.5616 10.0156V3.75075C17.5616 3.40619 17.2797 3.12427 16.9351 3.12427H16.9289Z" fill="#243258"/>
</svg>
