<svg width="25" height="25" viewBox="0 0 25 25" fill="none" xmlns="http://www.w3.org/2000/svg">
<path fill-rule="evenodd" clip-rule="evenodd" d="M5.72363 12.7144C5.72363 12.3001 6.05942 11.9644 6.47363 11.9644H18.4736C18.8878 11.9644 19.2236 12.3001 19.2236 12.7144C19.2236 13.1286 18.8878 13.4644 18.4736 13.4644H6.47363C6.05942 13.4644 5.72363 13.1286 5.72363 12.7144Z" fill="#243258"/>
<path fill-rule="evenodd" clip-rule="evenodd" d="M1.97363 8.21436C1.97363 7.80014 2.30942 7.46436 2.72363 7.46436H22.2236C22.6378 7.46436 22.9736 7.80014 22.9736 8.21436C22.9736 8.62857 22.6378 8.96436 22.2236 8.96436H2.72363C2.30942 8.96436 1.97363 8.62857 1.97363 8.21436Z" fill="#243258"/>
<path fill-rule="evenodd" clip-rule="evenodd" d="M9.47363 17.2144C9.47363 16.8001 9.80942 16.4644 10.2236 16.4644H14.7236C15.1378 16.4644 15.4736 16.8001 15.4736 17.2144C15.4736 17.6286 15.1378 17.9644 14.7236 17.9644H10.2236C9.80942 17.9644 9.47363 17.6286 9.47363 17.2144Z" fill="#243258"/>
</svg>
