<svg width="32" height="26" viewBox="0 0 32 26" fill="none" xmlns="http://www.w3.org/2000/svg">
<path fill-rule="evenodd" clip-rule="evenodd" d="M0.930298 24.1429C0.930298 23.7753 1.07633 23.4227 1.33626 23.1628C1.5962 22.9029 1.94874 22.7568 2.31635 22.7568H30.0373C30.4049 22.7568 30.7574 22.9029 31.0174 23.1628C31.2773 23.4227 31.4233 23.7753 31.4233 24.1429C31.4233 24.5105 31.2773 24.863 31.0174 25.123C30.7574 25.3829 30.4049 25.5289 30.0373 25.5289H2.31635C1.94874 25.5289 1.5962 25.3829 1.33626 25.123C1.07633 24.863 0.930298 24.5105 0.930298 24.1429ZM0.930298 13.0545C0.930298 12.6869 1.07633 12.3344 1.33626 12.0744C1.5962 11.8145 1.94874 11.6685 2.31635 11.6685H30.0373C30.4049 11.6685 30.7574 11.8145 31.0174 12.0744C31.2773 12.3344 31.4233 12.6869 31.4233 13.0545C31.4233 13.4221 31.2773 13.7747 31.0174 14.0346C30.7574 14.2945 30.4049 14.4406 30.0373 14.4406H2.31635C1.94874 14.4406 1.5962 14.2945 1.33626 14.0346C1.07633 13.7747 0.930298 13.4221 0.930298 13.0545ZM0.930298 1.96613C0.930298 1.59852 1.07633 1.24598 1.33626 0.986042C1.5962 0.726108 1.94874 0.580078 2.31635 0.580078H30.0373C30.4049 0.580078 30.7574 0.726108 31.0174 0.986042C31.2773 1.24598 31.4233 1.59852 31.4233 1.96613C31.4233 2.33373 31.2773 2.68627 31.0174 2.94621C30.7574 3.20614 30.4049 3.35217 30.0373 3.35217H2.31635C1.94874 3.35217 1.5962 3.20614 1.33626 2.94621C1.07633 2.68627 0.930298 2.33373 0.930298 1.96613Z" fill="white"/>
</svg>
