<svg width="17" height="17" viewBox="0 0 17 17" fill="none" xmlns="http://www.w3.org/2000/svg">
<g clip-path="url(#clip0_58_1186)">
<g clip-path="url(#clip1_58_1186)">
<g clip-path="url(#clip2_58_1186)">
<mask id="mask0_58_1186" style="mask-type:luminance" maskUnits="userSpaceOnUse" x="0" y="1" width="16" height="16">
<path d="M15.977 1.18701H0.918213V16.2458H15.977V1.18701Z" fill="white"/>
</mask>
<g mask="url(#mask0_58_1186)">
<path d="M14.0946 8.98245V8.08895C14.0946 6.59127 13.4997 5.15491 12.4407 4.09588C11.3817 3.03686 9.94531 2.44189 8.44762 2.44189C6.94992 2.44189 5.51358 3.03686 4.45454 4.09588C3.39551 5.15491 2.80056 6.59127 2.80056 8.08895V8.98245C2.14246 9.27223 1.60388 9.77928 1.27499 10.4187C0.946092 11.0581 0.846841 11.7912 0.993851 12.495C1.14086 13.1989 1.52521 13.8309 2.08254 14.2853C2.63989 14.7396 3.3364 14.9888 4.05546 14.9909H5.31037V8.71641H4.05546V8.08895C4.05546 6.92409 4.51821 5.80692 5.3419 4.98323C6.16558 4.15954 7.28274 3.6968 8.44762 3.6968C9.61249 3.6968 10.7297 4.15954 11.5534 4.98323C12.377 5.80692 12.8398 6.92409 12.8398 8.08895V8.71641H11.5849V13.7361H9.07507V14.9909H12.8398C13.5588 14.9888 14.2553 14.7396 14.8127 14.2853C15.37 13.8309 15.7544 13.1989 15.9014 12.495C16.0484 11.7912 15.9491 11.0581 15.6202 10.4187C15.2914 9.77928 14.7528 9.27223 14.0946 8.98245ZM4.05546 13.7361C3.55623 13.7361 3.07744 13.5377 2.72444 13.1847C2.37143 12.8317 2.1731 12.3529 2.1731 11.8537C2.1731 11.3544 2.37143 10.8756 2.72444 10.5226C3.07744 10.1696 3.55623 9.97131 4.05546 9.97131V13.7361ZM12.8398 13.7361V9.97131C13.339 9.97131 13.8178 10.1696 14.1708 10.5226C14.5238 10.8756 14.7221 11.3544 14.7221 11.8537C14.7221 12.3529 14.5238 12.8317 14.1708 13.1847C13.8178 13.5377 13.339 13.7361 12.8398 13.7361Z" fill="white"/>
</g>
</g>
</g>
</g>
<defs>
<clipPath id="clip0_58_1186">
<rect width="16" height="16" fill="white" transform="translate(0.604492 0.777832)"/>
</clipPath>
<clipPath id="clip1_58_1186">
<rect width="16" height="16" fill="white" transform="translate(0.604492 0.777832)"/>
</clipPath>
<clipPath id="clip2_58_1186">
<rect width="16" height="16" fill="white" transform="translate(0.604492 0.777832)"/>
</clipPath>
</defs>
</svg>
