<svg width="25" height="19" viewBox="0 0 25 19" fill="none" xmlns="http://www.w3.org/2000/svg">
<path d="M23.4884 8.45084L6.77756 0.34863C6.27117 0.105564 5.65844 0.222033 5.28372 0.642335C4.90899 1.06264 4.85329 1.68043 5.15205 2.1615L9.79563 9.59022L5.15205 17.024C4.85329 17.5051 4.90899 18.1229 5.28372 18.5432C5.53185 18.8166 5.87619 18.9635 6.2256 18.9635C6.41296 18.9635 6.60033 18.923 6.77756 18.8369L23.4884 10.7347C23.9239 10.5169 24.2024 10.0763 24.2024 9.59022C24.2024 9.10408 23.9239 8.66353 23.4884 8.45084ZM9.62853 14.6338L12.363 10.2586C12.6213 9.84847 12.6213 9.32689 12.363 8.91672L9.62853 4.54153L20.0348 9.59022L9.62853 14.6338Z" fill="#FCD100"/>
<path d="M8.31199 8.9216L3.24811 0.819387C2.87845 0.221849 2.09861 0.0446134 1.50107 0.414277C0.908595 0.78394 0.731359 1.56378 1.10102 2.16132L5.7446 9.59003L1.10102 17.0238C0.731359 17.6163 0.908595 18.3961 1.50107 18.7658C1.70869 18.8974 1.94163 18.9582 2.1695 18.9582C2.5898 18.9582 3.00504 18.7455 3.24305 18.3657L8.30693 10.2635C8.57025 9.85336 8.57025 9.33178 8.31199 8.9216Z" fill="#FCD100"/>
</svg>
