<svg width="20" height="23" viewBox="0 0 20 23" fill="none" xmlns="http://www.w3.org/2000/svg">
<path d="M9.91132 11.1589C10.5515 11.1589 11.0998 10.946 11.5561 10.5201C12.0116 10.095 12.2393 9.58366 12.2393 8.98614C12.2393 8.38862 12.0116 7.87692 11.5561 7.45105C11.0998 7.02591 10.5515 6.81333 9.91132 6.81333C9.27112 6.81333 8.72327 7.02591 8.26775 7.45105C7.81146 7.87692 7.58332 8.38862 7.58332 8.98614C7.58332 9.58366 7.81146 10.095 8.26775 10.5201C8.72327 10.946 9.27112 11.1589 9.91132 11.1589ZM9.91132 22.023C6.78792 19.5423 4.45526 17.2381 2.91334 15.1102C1.37065 12.983 0.599304 11.0141 0.599304 9.20342C0.599304 6.48741 1.53555 4.32366 3.40804 2.71217C5.27976 1.10067 7.44752 0.294922 9.91132 0.294922C12.3751 0.294922 14.5429 1.10067 16.4146 2.71217C18.2871 4.32366 19.2233 6.48741 19.2233 9.20342C19.2233 11.0141 18.4524 12.983 16.9105 15.1102C15.3678 17.2381 13.0347 19.5423 9.91132 22.023Z" fill="#FCD100"/>
</svg>
