<svg width="16" height="17" viewBox="0 0 16 17" fill="none" xmlns="http://www.w3.org/2000/svg">
<mask id="mask0_58_1198" style="mask-type:luminance" maskUnits="userSpaceOnUse" x="0" y="0" width="16" height="17">
<path d="M16 0.919922H0V16.9199H16V0.919922Z" fill="white"/>
</mask>
<g mask="url(#mask0_58_1198)">
<path d="M0.962626 5.36657C0.739398 5.43035 0.536692 5.55131 0.374567 5.71749C0.212442 5.88367 0.0965169 6.0893 0.0382624 6.31403C-0.0199922 6.53877 -0.0185569 6.77482 0.0424261 6.99883C0.103409 7.22284 0.221826 7.42704 0.38596 7.59123L2.66063 9.86323V14.2539H7.05596L9.34596 16.5405C9.46878 16.6646 9.61497 16.7632 9.77608 16.8304C9.93719 16.8977 10.1101 16.9324 10.2847 16.9325C10.3994 16.9323 10.5136 16.9175 10.6247 16.8885C10.8493 16.832 11.0551 16.7172 11.2213 16.5558C11.3874 16.3944 11.5082 16.1921 11.5713 15.9692L15.994 0.93457L0.962626 5.36657ZM1.33329 6.64857L12.6853 3.3019L3.99529 11.9779V9.31123L1.33329 6.64857ZM10.2933 15.5979L7.60863 12.9205H4.94196L13.6307 4.23923L10.2933 15.5979Z" fill="white"/>
</g>
</svg>
