<svg width="28" height="28" viewBox="0 0 28 28" fill="none" xmlns="http://www.w3.org/2000/svg">
<path d="M19.7153 14.7601C19.2439 14.7601 18.8581 15.1458 18.8581 15.6172V20.7603C18.8581 21.7032 18.0867 22.4747 17.1438 22.4747H6.85757C5.91466 22.4747 5.1432 21.7032 5.1432 20.7603V10.4741C5.1432 9.53124 5.91466 8.75978 6.85757 8.75978H12.0007C12.4721 8.75978 12.8579 8.37404 12.8579 7.90259C12.8579 7.43114 12.4721 7.04541 12.0007 7.04541H6.85757C4.96319 7.04541 3.42883 8.57977 3.42883 10.4741V20.7603C3.42883 22.6547 4.96319 24.1891 6.85757 24.1891H17.1438C19.0381 24.1891 20.5725 22.6547 20.5725 20.7603V15.6172C20.5725 15.1458 20.1868 14.7601 19.7153 14.7601Z" fill="#243258"/>
<path d="M23.1438 3.6167H14.572C14.1005 3.6167 13.7148 4.00243 13.7148 4.47388C13.7148 4.94533 14.1005 5.33107 14.572 5.33107H21.078L9.68603 16.723C9.35173 17.0573 9.35173 17.5974 9.68603 17.9317C9.85747 18.1031 10.0718 18.1802 10.2946 18.1802C10.5175 18.1802 10.7318 18.0945 10.9032 17.9317L22.2952 6.53969V13.0457C22.2952 13.5172 22.6809 13.9029 23.1524 13.9029C23.6238 13.9029 24.0096 13.5172 24.0096 13.0457V4.47388C24.0096 4.00243 23.6238 3.6167 23.1524 3.6167H23.1438Z" fill="#243258"/>
</svg>
