<svg width="38" height="28" viewBox="0 0 38 28" fill="none" xmlns="http://www.w3.org/2000/svg">
<path d="M9.12579 11.2099C8.71446 11.2099 8.31974 11.2712 7.92686 11.3271C8.05413 10.9087 8.18509 10.4831 8.39536 10.1007C8.60564 9.54519 8.93396 9.06362 9.26044 8.57845C9.53342 8.0536 10.0148 7.69829 10.369 7.2492C10.7397 6.81272 11.2451 6.52234 11.6454 6.15982C12.0383 5.78106 12.5529 5.59168 12.9624 5.32475C13.3903 5.08487 13.7629 4.81974 14.1613 4.69348L15.1555 4.29308L16.0298 3.93777L15.1352 0.442383L14.034 0.702101C13.6817 0.788675 13.252 0.889677 12.7632 1.01052C12.2633 1.1007 11.7302 1.34779 11.1363 1.57324C10.5497 1.82936 9.87097 2.0025 9.24015 2.41373C8.60564 2.80691 7.87336 3.13517 7.22779 3.66182C6.6025 4.20471 5.84809 4.67545 5.29105 5.36623C4.68236 6.01192 4.08105 6.69008 3.61439 7.46202C3.07395 8.19789 2.70689 9.00591 2.31955 9.80491C1.96909 10.6039 1.68688 11.4209 1.45632 12.2145C1.01917 13.8053 0.823648 15.3167 0.748023 16.6099C0.68531 17.9049 0.7222 18.9817 0.79967 19.7608C0.827337 20.1288 0.878984 20.4859 0.915874 20.733L0.961986 21.036L1.00994 21.0251C1.33801 22.5236 2.09323 23.9007 3.18824 24.997C4.28325 26.0933 5.67331 26.8641 7.19761 27.2202C8.72191 27.5763 10.3182 27.5032 11.8017 27.0092C13.2853 26.5153 14.5955 25.6207 15.5808 24.4291C16.5662 23.2374 17.1864 21.7973 17.3697 20.2754C17.553 18.7535 17.2919 17.2119 16.6166 15.829C15.9413 14.4461 14.8794 13.2784 13.5538 12.461C12.2282 11.6436 10.693 11.2098 9.12579 11.2099ZM29.4154 11.2099C29.0041 11.2099 28.6093 11.2712 28.2165 11.3271C28.3437 10.9087 28.4747 10.4831 28.685 10.1007C28.8952 9.54519 29.2236 9.06362 29.55 8.57845C29.823 8.0536 30.3044 7.69829 30.6586 7.2492C31.0293 6.81272 31.5347 6.52234 31.935 6.15982C32.3279 5.78106 32.8425 5.59168 33.252 5.32475C33.6799 5.08487 34.0525 4.81974 34.4509 4.69348L35.4451 4.29308L36.3194 3.93777L35.4248 0.442383L34.3236 0.702101C33.9713 0.788675 33.5416 0.889677 33.0528 1.01052C32.5529 1.1007 32.0198 1.34779 31.4259 1.57324C30.8412 1.83116 30.1606 2.0025 29.5298 2.41553C28.8952 2.80871 28.163 3.13697 27.5174 3.66362C26.8921 4.20651 26.1377 4.67725 25.5807 5.36623C24.972 6.01192 24.3707 6.69008 23.904 7.46202C23.3636 8.19789 22.9965 9.00591 22.6092 9.80491C22.2587 10.6039 21.9765 11.4209 21.7459 12.2145C21.3088 13.8053 21.1133 15.3167 21.0376 16.6099C20.9749 17.9049 21.0118 18.9817 21.0893 19.7608C21.1169 20.1288 21.1686 20.4859 21.2055 20.733L21.2516 21.036L21.2996 21.0251C21.6276 22.5236 22.3828 23.9007 23.4778 24.997C24.5729 26.0933 25.9629 26.8641 27.4872 27.2202C29.0115 27.5763 30.6078 27.5032 32.0913 27.0092C33.5749 26.5153 34.8851 25.6207 35.8705 24.4291C36.8558 23.2374 37.476 21.7973 37.6593 20.2754C37.8426 18.7535 37.5815 17.2119 36.9062 15.829C36.2309 14.4461 35.169 13.2784 33.8434 12.461C32.5178 11.6436 30.9826 11.2098 29.4154 11.2099Z" fill="#FCD100"/>
</svg>
