<svg width="20" height="20" viewBox="0 0 20 20" fill="none" xmlns="http://www.w3.org/2000/svg">
<path d="M19.5529 1.27289C19.5952 1.16712 19.6056 1.05126 19.5827 0.939658C19.5598 0.828058 19.5046 0.72563 19.4241 0.645074C19.3435 0.564517 19.2411 0.509374 19.1295 0.486481C19.0179 0.463588 18.902 0.473952 18.7963 0.516288L1.86353 7.28962H1.86236L1.33623 7.49914C1.23658 7.53889 1.14986 7.60541 1.08564 7.69135C1.02142 7.77729 0.982211 7.87931 0.972335 7.98614C0.962459 8.09297 0.982304 8.20045 1.02968 8.29671C1.07705 8.39297 1.15011 8.47426 1.24079 8.53161L1.71803 8.83425L1.71919 8.83658L7.53338 12.5358L11.2326 18.35L11.2349 18.3523L11.5375 18.8295C11.5951 18.9199 11.6764 18.9926 11.7726 19.0396C11.8688 19.0867 11.9761 19.1063 12.0827 19.0963C12.1893 19.0864 12.2911 19.0471 12.3769 18.983C12.4627 18.9189 12.5291 18.8324 12.5689 18.7329L19.5529 1.27289ZM17.4193 3.47285L8.69622 12.1959L8.44596 11.8025C8.4001 11.7303 8.3389 11.6691 8.2667 11.6232L7.87327 11.3729L16.5963 2.6499L17.9675 2.10166L17.4204 3.47285H17.4193Z" fill="#243258"/>
</svg>
