<svg width="14" height="13" viewBox="0 0 14 13" fill="none" xmlns="http://www.w3.org/2000/svg">
<path d="M6.29671 1.07262C6.55066 0.29106 7.65637 0.29106 7.91027 1.07262L8.81763 3.8651C8.93122 4.21463 9.25689 4.45128 9.62446 4.45128H12.5607C13.3824 4.45128 13.7241 5.50286 13.0593 5.98589L10.6838 7.71174C10.3865 7.92772 10.2621 8.31065 10.3756 8.66016L11.283 11.4526C11.5369 12.2342 10.6424 12.8842 9.97753 12.4011L7.60216 10.6752C7.30483 10.4593 6.90221 10.4593 6.60488 10.6752L4.22945 12.4011C3.56462 12.8842 2.67009 12.2342 2.92403 11.4526L3.83136 8.66016C3.94493 8.31065 3.82051 7.92772 3.5232 7.71174L1.14777 5.98589C0.482923 5.50286 0.824608 4.45128 1.64639 4.45128H4.58258C4.9501 4.45128 5.27581 4.21463 5.38938 3.8651L6.29671 1.07262Z" fill="#DEDFDE"/>
</svg>
