<svg width="24" height="25" viewBox="0 0 24 25" fill="none" xmlns="http://www.w3.org/2000/svg">
<path d="M21.2372 5.58683L12.2372 2.58683C12.0832 2.53551 11.9168 2.53551 11.7628 2.58683L2.76281 5.58683C2.61347 5.63662 2.48358 5.73213 2.39155 5.85984C2.29951 5.98755 2.24999 6.14098 2.25 6.2984V13.7984C2.25 13.9973 2.32902 14.1881 2.46967 14.3287C2.61032 14.4694 2.80109 14.5484 3 14.5484C3.19891 14.5484 3.38968 14.4694 3.53033 14.3287C3.67098 14.1881 3.75 13.9973 3.75 13.7984V7.33902L6.89906 8.38808C6.0624 9.73977 5.79634 11.3682 6.15931 12.9159C6.52229 14.4636 7.48462 15.804 8.835 16.6428C7.1475 17.3046 5.68875 18.5018 4.62187 20.1387C4.56639 20.2212 4.52785 20.3138 4.50849 20.4113C4.48914 20.5088 4.48936 20.6092 4.50913 20.7066C4.52891 20.804 4.56785 20.8965 4.62369 20.9787C4.67953 21.061 4.75116 21.1313 4.83441 21.1856C4.91766 21.2399 5.01087 21.2771 5.10863 21.295C5.20639 21.313 5.30674 21.3113 5.40386 21.2902C5.50097 21.269 5.59291 21.2288 5.67433 21.1717C5.75575 21.1147 5.82502 21.0421 5.87813 20.9581C7.29094 18.7906 9.52219 17.5484 12 17.5484C14.4778 17.5484 16.7091 18.7906 18.1219 20.9581C18.2319 21.1216 18.4018 21.2352 18.5949 21.2744C18.788 21.3136 18.9888 21.2752 19.1539 21.1676C19.3189 21.0599 19.435 20.8917 19.4769 20.6991C19.5189 20.5066 19.4834 20.3053 19.3781 20.1387C18.3112 18.5018 16.8469 17.3046 15.165 16.6428C16.5141 15.804 17.4755 14.4645 17.8384 12.918C18.2013 11.3714 17.9361 9.74407 17.1009 8.39277L21.2372 7.01465C21.3866 6.96489 21.5165 6.86939 21.6086 6.74168C21.7006 6.61397 21.7502 6.46052 21.7502 6.30308C21.7502 6.14564 21.7006 5.9922 21.6086 5.86449C21.5165 5.73677 21.3866 5.64128 21.2372 5.59152V5.58683ZM16.5 11.5484C16.5002 12.2598 16.3317 12.9612 16.0084 13.5949C15.6851 14.2286 15.2161 14.7766 14.6399 15.1939C14.0638 15.6113 13.3969 15.8861 12.694 15.9958C11.9911 16.1056 11.2722 16.047 10.5962 15.8251C9.92031 15.6032 9.30663 15.2242 8.80555 14.7191C8.30448 14.2141 7.93028 13.5975 7.71367 12.9198C7.49705 12.2422 7.44419 11.5228 7.55942 10.8208C7.67465 10.1188 7.95469 9.45406 8.37656 8.88121L11.7628 10.0062C11.9168 10.0575 12.0832 10.0575 12.2372 10.0062L15.6234 8.88121C16.1932 9.65374 16.5004 10.5885 16.5 11.5484Z" fill="white"/>
</svg>
