<svg width="25" height="25" viewBox="0 0 25 25" fill="none" xmlns="http://www.w3.org/2000/svg">
<g clip-path="url(#clip0_133_7569)">
<path d="M8.8447 11.8186C9.62267 13.4091 10.9119 14.6925 12.506 15.4632C12.6226 15.5185 12.7516 15.5424 12.8803 15.5327C13.009 15.5229 13.1329 15.4799 13.2399 15.4077L15.587 13.8426C15.6908 13.7734 15.8102 13.7311 15.9345 13.7197C16.0587 13.7083 16.1838 13.7281 16.2985 13.7772L20.6895 15.6591C20.8387 15.7224 20.9632 15.8325 21.0443 15.9728C21.1255 16.1131 21.1588 16.276 21.1393 16.4369C21.0005 17.5229 20.4707 18.5211 19.6489 19.2445C18.8272 19.968 17.7699 20.3671 16.675 20.3672C13.2935 20.3672 10.0505 19.0239 7.65944 16.6328C5.26835 14.2417 3.92505 10.9987 3.92505 7.61716C3.92511 6.52232 4.32423 5.46504 5.04769 4.64329C5.77114 3.82154 6.76933 3.29166 7.85533 3.15288C8.01622 3.13341 8.17908 3.16675 8.31937 3.24788C8.45966 3.32902 8.56978 3.45355 8.63314 3.60271L10.5166 7.99751C10.5653 8.11119 10.5852 8.23514 10.5744 8.35835C10.5636 8.48155 10.5225 8.60018 10.4548 8.70366L8.89516 11.0868C8.82417 11.194 8.78221 11.3177 8.77336 11.446C8.76452 11.5743 8.7891 11.7027 8.8447 11.8186V11.8186Z" stroke="white" stroke-width="1.5" stroke-linecap="round" stroke-linejoin="round"/>
</g>
<defs>
<clipPath id="clip0_133_7569">
<rect width="24" height="24" fill="white" transform="translate(0.175049 0.117188)"/>
</clipPath>
</defs>
</svg>
