<svg width="20" height="19" viewBox="0 0 20 19" fill="none" xmlns="http://www.w3.org/2000/svg">
<path fill-rule="evenodd" clip-rule="evenodd" d="M2.96288 0.654386C3.16655 0.451022 3.41112 0.293264 3.68037 0.191567C3.94962 0.0898704 4.23741 0.0465567 4.52467 0.0644966C4.81193 0.0824364 5.09209 0.16122 5.3466 0.295627C5.60111 0.430034 5.82414 0.616994 6.00093 0.844119L8.09031 3.52831C8.47327 4.02068 8.60829 4.66205 8.45697 5.26733L7.82026 7.81649C7.78734 7.94853 7.78912 8.08683 7.82543 8.21797C7.86173 8.34911 7.93133 8.46864 8.02746 8.56495L10.8874 11.4249C10.9838 11.5212 11.1036 11.5909 11.2349 11.6272C11.3663 11.6636 11.5048 11.6652 11.637 11.6321L14.185 10.9954C14.4837 10.9207 14.7955 10.9149 15.0968 10.9784C15.398 11.0419 15.6809 11.1731 15.9241 11.362L18.6082 13.4503C19.5732 14.201 19.6617 15.6269 18.798 16.4895L17.5944 17.6931C16.733 18.5544 15.4456 18.9327 14.2456 18.5102C11.174 17.4294 8.38512 15.671 6.0859 13.3653C3.78035 11.0664 2.02191 8.27797 0.941009 5.2068C0.51964 4.00788 0.897941 2.71933 1.7593 1.85796L2.96288 0.654386Z" fill="#FCD100"/>
</svg>
