<svg width="60" height="61" viewBox="0 0 60 61" fill="none" xmlns="http://www.w3.org/2000/svg">
<path fill-rule="evenodd" clip-rule="evenodd" d="M30.231 58.6756C44.6191 58.6756 56.2829 47.0118 56.2829 32.6238C56.2829 18.2357 44.6191 6.5719 30.231 6.5719C15.843 6.5719 4.17914 18.2357 4.17914 32.6238C4.17914 37.2961 5.40915 41.6812 7.56304 45.4729L4.17914 58.6756L17.791 55.5193C21.4876 57.532 25.7257 58.6756 30.231 58.6756ZM30.231 54.6677C42.4055 54.6677 52.2749 44.7983 52.2749 32.6238C52.2749 20.4493 42.4055 10.5799 30.231 10.5799C18.0565 10.5799 8.18712 20.4493 8.18712 32.6238C8.18712 37.3244 9.65841 41.6814 12.1656 45.2593L10.1911 52.6637L17.726 50.7799C21.2791 53.2318 25.5874 54.6677 30.231 54.6677Z" fill="#BFC8D0"/>
<path d="M52.5612 30.7629C52.5612 43.0955 42.5636 53.0931 30.231 53.0931C25.5271 53.0931 21.1629 51.6386 17.5636 49.1549L9.93086 51.0631L11.931 43.5626C9.39125 39.9381 7.90085 35.5246 7.90085 30.7629C7.90085 18.4303 17.8984 8.43274 30.231 8.43274C42.5636 8.43274 52.5612 18.4303 52.5612 30.7629Z" fill="url(#paint0_linear_211_6128)"/>
<path fill-rule="evenodd" clip-rule="evenodd" d="M30.231 56.8148C44.6191 56.8148 56.2829 45.151 56.2829 30.7629C56.2829 16.3749 44.6191 4.71106 30.231 4.71106C15.843 4.71106 4.17914 16.3749 4.17914 30.7629C4.17914 35.4353 5.40915 39.8204 7.56304 43.612L4.17914 56.8148L17.791 53.6584C21.4876 55.6712 25.7257 56.8148 30.231 56.8148ZM30.231 52.8068C42.4055 52.8068 52.2749 42.9374 52.2749 30.7629C52.2749 18.5884 42.4055 8.71904 30.231 8.71904C18.0565 8.71904 8.18712 18.5884 8.18712 30.7629C8.18712 35.4635 9.65841 39.8205 12.1656 43.3985L10.1911 50.8028L17.726 48.9191C21.2791 51.371 25.5874 52.8068 30.231 52.8068Z" fill="white"/>
<path d="M23.7181 18.6675C23.0987 17.4234 22.1485 17.5336 21.1886 17.5336C19.473 17.5336 16.798 19.5885 16.798 23.4128C16.798 26.5471 18.1792 29.978 22.8331 35.1104C27.3245 40.0635 33.2259 42.6258 38.1251 42.5386C43.0244 42.4514 44.0324 38.2354 44.0324 36.8116C44.0324 36.1805 43.6407 35.8657 43.371 35.7801C41.7014 34.9789 38.6222 33.4859 37.9216 33.2054C37.2209 32.9249 36.8551 33.3043 36.6277 33.5107C35.9923 34.1162 34.7329 35.9006 34.3017 36.302C33.8704 36.7034 33.2275 36.5002 32.96 36.3485C31.9754 35.9534 29.306 34.7661 27.1782 32.7034C24.5467 30.1525 24.3923 29.2748 23.8965 28.4936C23.4999 27.8686 23.7909 27.4851 23.9362 27.3176C24.5031 26.6634 25.286 25.6533 25.6371 25.1514C25.9882 24.6495 25.7095 23.8875 25.5422 23.4128C24.823 21.3716 24.2136 19.6628 23.7181 18.6675Z" fill="white"/>
<defs>
<linearGradient id="paint0_linear_211_6128" x1="49.7699" y1="14.0153" x2="7.90085" y2="53.0931" gradientUnits="userSpaceOnUse">
<stop stop-color="#5BD066"/>
<stop offset="1" stop-color="#27B43E"/>
</linearGradient>
</defs>
</svg>
